<svg width="36" height="45" viewBox="0 0 36 45" fill="none" xmlns="http://www.w3.org/2000/svg">
<g filter="url(#filter0_ii_1_1110)">
<path d="M33.1543 16.2654C32.8968 15.7171 32.302 15.3621 31.6436 15.3621H23.9686L30.8702 4.71133C31.1681 4.25123 31.1714 3.68205 30.8789 3.21997C30.5853 2.75689 30.042 2.47131 29.4526 2.47131H16.3067C15.7075 2.47131 15.1554 2.76681 14.8672 3.24178L2.81685 23.0737C2.5375 23.5338 2.54626 24.0951 2.84205 24.5472C3.13783 25.0004 3.67572 25.278 4.25633 25.278H11.6783L4.92786 40.0806C4.6266 40.742 4.88733 41.5035 5.549 41.8942C5.82507 42.0559 6.13619 42.1352 6.44731 42.1352C6.88222 42.1352 7.31493 41.9785 7.63372 41.6771L32.83 17.8787C33.2857 17.4484 33.4139 16.8138 33.1543 16.2654Z" fill="#EDB146"/>
</g>
<path d="M33.1543 16.2654C32.8968 15.7171 32.302 15.3621 31.6436 15.3621H23.9686L30.8702 4.71133C31.1681 4.25123 31.1714 3.68205 30.8789 3.21997C30.5853 2.75689 30.042 2.47131 29.4526 2.47131H16.3067C15.7075 2.47131 15.1554 2.76681 14.8672 3.24178L2.81685 23.0737C2.5375 23.5338 2.54626 24.0951 2.84205 24.5472C3.13783 25.0004 3.67572 25.278 4.25633 25.278H11.6783L4.92786 40.0806C4.6266 40.742 4.88733 41.5035 5.549 41.8942C5.82507 42.0559 6.13619 42.1352 6.44731 42.1352C6.88222 42.1352 7.31493 41.9785 7.63372 41.6771L32.83 17.8787C33.2857 17.4484 33.4139 16.8138 33.1543 16.2654Z" stroke="#171B27" stroke-width="4.23081"/>
<defs>
<filter id="filter0_ii_1_1110" x="0.498184" y="0.355957" width="34.905" height="43.8947" filterUnits="userSpaceOnUse" color-interpolation-filters="sRGB">
<feFlood flood-opacity="0" result="BackgroundImageFix"/>
<feBlend mode="normal" in="SourceGraphic" in2="BackgroundImageFix" result="shape"/>
<feColorMatrix in="SourceAlpha" type="matrix" values="0 0 0 0 0 0 0 0 0 0 0 0 0 0 0 0 0 0 127 0" result="hardAlpha"/>
<feOffset dy="-8.46163"/>
<feComposite in2="hardAlpha" operator="arithmetic" k2="-1" k3="1"/>
<feColorMatrix type="matrix" values="0 0 0 0 0 0 0 0 0 0 0 0 0 0 0 0 0 0 0.25 0"/>
<feBlend mode="normal" in2="shape" result="effect1_innerShadow_1_1110"/>
<feColorMatrix in="SourceAlpha" type="matrix" values="0 0 0 0 0 0 0 0 0 0 0 0 0 0 0 0 0 0 127 0" result="hardAlpha"/>
<feOffset dy="8.46163"/>
<feComposite in2="hardAlpha" operator="arithmetic" k2="-1" k3="1"/>
<feColorMatrix type="matrix" values="0 0 0 0 1 0 0 0 0 1 0 0 0 0 1 0 0 0 0.25 0"/>
<feBlend mode="normal" in2="effect1_innerShadow_1_1110" result="effect2_innerShadow_1_1110"/>
</filter>
</defs>
</svg>
