<svg width="215" height="46" viewBox="0 0 215 46" fill="none" xmlns="http://www.w3.org/2000/svg">
<rect width="215" height="46" rx="9" fill="#D87B56"/>
<path d="M49.242 27.182C48.2993 27.182 47.4967 26.972 46.834 26.552C46.1807 26.1227 45.7233 25.53 45.462 24.774L46.848 23.962C47.24 25.0633 48.052 25.614 49.284 25.614C49.8813 25.614 50.334 25.4973 50.642 25.264C50.95 25.0307 51.104 24.718 51.104 24.326C51.104 23.934 50.9407 23.6307 50.614 23.416C50.2873 23.2013 49.7087 22.968 48.878 22.716C48.0287 22.464 47.3427 22.1653 46.82 21.82C46.1853 21.372 45.868 20.714 45.868 19.846C45.868 18.978 46.176 18.292 46.792 17.788C47.3987 17.2747 48.1407 17.018 49.018 17.018C49.7927 17.018 50.474 17.2093 51.062 17.592C51.6593 17.9653 52.1167 18.4927 52.434 19.174L51.076 19.958C50.6653 19.0433 49.9793 18.586 49.018 18.586C48.5513 18.586 48.178 18.698 47.898 18.922C47.618 19.1367 47.478 19.4307 47.478 19.804C47.478 20.168 47.618 20.4573 47.898 20.672C48.178 20.8773 48.696 21.0967 49.452 21.33C49.9187 21.4887 50.1893 21.582 50.264 21.61C50.3853 21.6473 50.628 21.7407 50.992 21.89C51.2907 22.0113 51.5287 22.142 51.706 22.282C52.434 22.8513 52.77 23.5233 52.714 24.298C52.714 25.1847 52.392 25.8893 51.748 26.412C51.1227 26.9253 50.2873 27.182 49.242 27.182ZM55.5148 18.67C55.3281 18.8567 55.1041 18.95 54.8428 18.95C54.5814 18.95 54.3528 18.8567 54.1568 18.67C53.9701 18.474 53.8768 18.2453 53.8768 17.984C53.8768 17.7227 53.9701 17.4987 54.1568 17.312C54.3434 17.116 54.5721 17.018 54.8428 17.018C55.1134 17.018 55.3421 17.116 55.5288 17.312C55.7154 17.4987 55.8088 17.7227 55.8088 17.984C55.8088 18.2453 55.7108 18.474 55.5148 18.67ZM55.5988 27H54.0868V20H55.5988V27ZM62.9963 21.036V20H64.4803V26.678C64.4803 27.742 64.1303 28.5587 63.4303 29.128C62.7397 29.6973 61.8903 29.982 60.8823 29.982C59.2677 29.982 58.1617 29.4173 57.5643 28.288L58.8663 27.532C59.2303 28.2507 59.9117 28.61 60.9103 28.61C61.5637 28.61 62.0723 28.4373 62.4363 28.092C62.8097 27.756 62.9963 27.2847 62.9963 26.678V25.824C62.427 26.636 61.615 27.042 60.5603 27.042C59.5803 27.042 58.745 26.692 58.0543 25.992C57.373 25.2827 57.0323 24.4287 57.0323 23.43C57.0323 22.422 57.373 21.5727 58.0543 20.882C58.7357 20.1727 59.571 19.818 60.5603 19.818C61.615 19.818 62.427 20.224 62.9963 21.036ZM59.1743 24.998C59.6037 25.418 60.1357 25.628 60.7703 25.628C61.405 25.628 61.9323 25.418 62.3523 24.998C62.7817 24.578 62.9963 24.0553 62.9963 23.43C62.9963 22.8047 62.7817 22.282 62.3523 21.862C61.9323 21.442 61.405 21.232 60.7703 21.232C60.1357 21.232 59.6037 21.442 59.1743 21.862C58.7543 22.282 58.5443 22.8047 58.5443 23.43C58.5443 24.0553 58.7543 24.578 59.1743 24.998ZM69.9947 19.818C70.8067 19.818 71.4554 20.0793 71.9407 20.602C72.4354 21.1153 72.6827 21.8153 72.6827 22.702V27H71.1707V22.856C71.1707 22.3333 71.0307 21.932 70.7507 21.652C70.4707 21.372 70.088 21.232 69.6027 21.232C69.052 21.232 68.618 21.4047 68.3007 21.75C67.9834 22.086 67.8247 22.5853 67.8247 23.248V27H66.3127V20H67.8247V20.896C68.2914 20.1773 69.0147 19.818 69.9947 19.818ZM82.6687 23.752V20H84.1807V27H82.6687V26.104C82.2021 26.8227 81.4787 27.182 80.4987 27.182C79.6867 27.182 79.0334 26.9253 78.5387 26.412C78.0534 25.8893 77.8107 25.1847 77.8107 24.298V20H79.3227V24.144C79.3227 24.6667 79.4627 25.068 79.7427 25.348C80.0227 25.628 80.4054 25.768 80.8907 25.768C81.4414 25.768 81.8754 25.6 82.1927 25.264C82.5101 24.9187 82.6687 24.4147 82.6687 23.752ZM89.9808 19.818C90.9328 19.818 91.7541 20.1773 92.4448 20.896C93.1261 21.6053 93.4668 22.4733 93.4668 23.5C93.4668 24.536 93.1261 25.4087 92.4448 26.118C91.7635 26.8273 90.9421 27.182 89.9808 27.182C88.9261 27.182 88.1095 26.79 87.5308 26.006V29.8H86.0188V20H87.5308V21.008C88.1001 20.2147 88.9168 19.818 89.9808 19.818ZM88.1608 25.11C88.5808 25.53 89.1081 25.74 89.7428 25.74C90.3775 25.74 90.9048 25.53 91.3248 25.11C91.7448 24.6807 91.9548 24.144 91.9548 23.5C91.9548 22.856 91.7448 22.324 91.3248 21.904C90.9048 21.4747 90.3775 21.26 89.7428 21.26C89.1081 21.26 88.5808 21.4747 88.1608 21.904C87.7408 22.324 87.5308 22.856 87.5308 23.5C87.5308 24.1347 87.7408 24.6713 88.1608 25.11ZM102.145 17.018V18.474C101.044 18.3807 100.493 18.8427 100.493 19.86V20H102.145V21.456H100.493V27H98.9812V21.456H97.9172V20H98.9812V19.86C98.9812 18.8893 99.2518 18.1567 99.7932 17.662C100.334 17.1673 101.118 16.9527 102.145 17.018ZM108.694 26.118C107.984 26.8273 107.112 27.182 106.076 27.182C105.04 27.182 104.167 26.8273 103.458 26.118C102.739 25.3993 102.38 24.5267 102.38 23.5C102.38 22.4733 102.739 21.6007 103.458 20.882C104.167 20.1727 105.04 19.818 106.076 19.818C107.112 19.818 107.984 20.1727 108.694 20.882C109.412 21.6007 109.772 22.4733 109.772 23.5C109.772 24.5267 109.412 25.3993 108.694 26.118ZM103.892 23.5C103.892 24.1347 104.102 24.662 104.522 25.082C104.942 25.502 105.46 25.712 106.076 25.712C106.692 25.712 107.21 25.502 107.63 25.082C108.05 24.662 108.26 24.1347 108.26 23.5C108.26 22.8653 108.05 22.338 107.63 21.918C107.21 21.498 106.692 21.288 106.076 21.288C105.46 21.288 104.942 21.498 104.522 21.918C104.102 22.338 103.892 22.8653 103.892 23.5ZM112.721 20V21.176C113.104 20.308 113.822 19.874 114.877 19.874V21.512C114.308 21.4747 113.804 21.6147 113.365 21.932C112.936 22.24 112.721 22.7533 112.721 23.472V27H111.209V20H112.721ZM119.732 17.2H123.344C124.268 17.2 125.038 17.508 125.654 18.124C126.279 18.74 126.592 19.5053 126.592 20.42C126.592 21.3253 126.279 22.0907 125.654 22.716C125.038 23.332 124.268 23.64 123.344 23.64H121.342V27H119.732V17.2ZM121.342 22.128H123.344C123.82 22.128 124.212 21.9693 124.52 21.652C124.828 21.3253 124.982 20.9147 124.982 20.42C124.982 19.9253 124.828 19.5193 124.52 19.202C124.212 18.8753 123.82 18.712 123.344 18.712H121.342V22.128ZM129.337 20V21.176C129.72 20.308 130.439 19.874 131.493 19.874V21.512C130.924 21.4747 130.42 21.6147 129.981 21.932C129.552 22.24 129.337 22.7533 129.337 23.472V27H127.825V20H129.337ZM138.274 26.118C137.565 26.8273 136.692 27.182 135.656 27.182C134.62 27.182 133.748 26.8273 133.038 26.118C132.32 25.3993 131.96 24.5267 131.96 23.5C131.96 22.4733 132.32 21.6007 133.038 20.882C133.748 20.1727 134.62 19.818 135.656 19.818C136.692 19.818 137.565 20.1727 138.274 20.882C138.993 21.6007 139.352 22.4733 139.352 23.5C139.352 24.5267 138.993 25.3993 138.274 26.118ZM133.472 23.5C133.472 24.1347 133.682 24.662 134.102 25.082C134.522 25.502 135.04 25.712 135.656 25.712C136.272 25.712 136.79 25.502 137.21 25.082C137.63 24.662 137.84 24.1347 137.84 23.5C137.84 22.8653 137.63 22.338 137.21 21.918C136.79 21.498 136.272 21.288 135.656 21.288C135.04 21.288 134.522 21.498 134.102 21.918C133.682 22.338 133.472 22.8653 133.472 23.5ZM152.577 27H150.841L150.155 25.026H145.983L145.297 27H143.547L147.103 17.2H149.035L152.577 27ZM148.069 19.09L146.515 23.514H149.623L148.069 19.09ZM156.73 27.182C155.675 27.182 154.793 26.8273 154.084 26.118C153.384 25.3993 153.034 24.5267 153.034 23.5C153.034 22.4547 153.384 21.582 154.084 20.882C154.793 20.1727 155.675 19.818 156.73 19.818C157.411 19.818 158.032 19.9813 158.592 20.308C159.152 20.6347 159.572 21.0733 159.852 21.624L158.55 22.38C158.391 22.044 158.148 21.7827 157.822 21.596C157.504 21.4 157.136 21.302 156.716 21.302C156.1 21.302 155.582 21.512 155.162 21.932C154.751 22.3613 154.546 22.884 154.546 23.5C154.546 24.116 154.751 24.6387 155.162 25.068C155.582 25.488 156.1 25.698 156.716 25.698C157.126 25.698 157.495 25.6047 157.822 25.418C158.158 25.222 158.41 24.956 158.578 24.62L159.88 25.362C159.581 25.922 159.147 26.3653 158.578 26.692C158.018 27.0187 157.402 27.182 156.73 27.182ZM164.237 27.182C163.182 27.182 162.3 26.8273 161.591 26.118C160.891 25.3993 160.541 24.5267 160.541 23.5C160.541 22.4547 160.891 21.582 161.591 20.882C162.3 20.1727 163.182 19.818 164.237 19.818C164.918 19.818 165.539 19.9813 166.099 20.308C166.659 20.6347 167.079 21.0733 167.359 21.624L166.057 22.38C165.898 22.044 165.656 21.7827 165.329 21.596C165.012 21.4 164.643 21.302 164.223 21.302C163.607 21.302 163.089 21.512 162.669 21.932C162.258 22.3613 162.053 22.884 162.053 23.5C162.053 24.116 162.258 24.6387 162.669 25.068C163.089 25.488 163.607 25.698 164.223 25.698C164.634 25.698 165.002 25.6047 165.329 25.418C165.665 25.222 165.917 24.956 166.085 24.62L167.387 25.362C167.088 25.922 166.654 26.3653 166.085 26.692C165.525 27.0187 164.909 27.182 164.237 27.182ZM174.363 26.118C173.653 26.8273 172.781 27.182 171.745 27.182C170.709 27.182 169.836 26.8273 169.127 26.118C168.408 25.3993 168.049 24.5267 168.049 23.5C168.049 22.4733 168.408 21.6007 169.127 20.882C169.836 20.1727 170.709 19.818 171.745 19.818C172.781 19.818 173.653 20.1727 174.363 20.882C175.081 21.6007 175.441 22.4733 175.441 23.5C175.441 24.5267 175.081 25.3993 174.363 26.118ZM169.561 23.5C169.561 24.1347 169.771 24.662 170.191 25.082C170.611 25.502 171.129 25.712 171.745 25.712C172.361 25.712 172.879 25.502 173.299 25.082C173.719 24.662 173.929 24.1347 173.929 23.5C173.929 22.8653 173.719 22.338 173.299 21.918C172.879 21.498 172.361 21.288 171.745 21.288C171.129 21.288 170.611 21.498 170.191 21.918C169.771 22.338 169.561 22.8653 169.561 23.5ZM181.596 23.752V20H183.108V27H181.596V26.104C181.129 26.8227 180.406 27.182 179.426 27.182C178.614 27.182 177.96 26.9253 177.466 26.412C176.98 25.8893 176.738 25.1847 176.738 24.298V20H178.25V24.144C178.25 24.6667 178.39 25.068 178.67 25.348C178.95 25.628 179.332 25.768 179.818 25.768C180.368 25.768 180.802 25.6 181.12 25.264C181.437 24.9187 181.596 24.4147 181.596 23.752ZM188.628 19.818C189.44 19.818 190.088 20.0793 190.574 20.602C191.068 21.1153 191.316 21.8153 191.316 22.702V27H189.804V22.856C189.804 22.3333 189.664 21.932 189.384 21.652C189.104 21.372 188.721 21.232 188.236 21.232C187.685 21.232 187.251 21.4047 186.934 21.75C186.616 22.086 186.458 22.5853 186.458 23.248V27H184.946V20H186.458V20.896C186.924 20.1773 187.648 19.818 188.628 19.818ZM196.92 20V21.456H195.184V24.816C195.184 25.1053 195.249 25.3153 195.38 25.446C195.51 25.5673 195.702 25.6373 195.954 25.656C196.215 25.6653 196.537 25.6607 196.92 25.642V27C195.762 27.14 194.932 27.042 194.428 26.706C193.924 26.3607 193.672 25.7307 193.672 24.816V21.456H192.384V20H193.672V18.488L195.184 18.04V20H196.92Z" fill="white"/>
<path d="M23.2575 24.6292L21.9434 22L20.6292 24.6292L18 25.9434L20.6292 27.2575L21.9434 29.8867L23.2575 27.2575L25.8867 25.9434L23.2575 24.6292Z" fill="white"/>
<path d="M29.3329 17.6671L27.5 14L25.6671 17.6671L22 19.5L25.6671 21.3329L27.5 25L29.3329 21.3329L33 19.5L29.3329 17.6671Z" fill="white"/>
<path d="M33.333 26.667L32 24L30.667 26.667L28 28L30.667 29.333L32 32L33.333 29.333L36 28L33.333 26.667Z" fill="white"/>
</svg>
